<svg xmlns="http://www.w3.org/2000/svg" version="1.1" width="1000" height="1000"><style>
    #light-icon {
      display: inline;
    }
    #dark-icon {
      display: none;
    }

    @media (prefers-color-scheme: dark) {
      #light-icon {
        display: none;
      }
      #dark-icon {
        display: inline;
      }
    }
  </style><g id="light-icon">
    <svg xmlns="http://www.w3.org/2000/svg" version="1.1" width="1000" height="1000"><g><g transform="matrix(41.666666666666664,0,0,41.666666666666664,0,0)" style="filter: contrast(1) brightness(0.1)">
        <svg xmlns="http://www.w3.org/2000/svg" version="1.1"
             width="24px" height="24px"><svg xmlns="http://www.w3.org/2000/svg" height="24px" viewBox="0 -960 960 960" width="24px" fill="#e3e3e3"><path d="M320-240h60v-80h80v-60h-80v-80h-60v80h-80v60h80v80Zm200-30h200v-60H520v60Zm0-100h200v-60H520v60Zm44-152 56-56 56 56 42-42-56-58 56-56-42-42-56 56-56-56-42 42 56 56-56 58 42 42Zm-314-70h200v-60H250v60Zm-50 472q-33 0-56.5-23.5T120-200v-560q0-33 23.5-56.5T200-840h560q33 0 56.5 23.5T840-760v560q0 33-23.5 56.5T760-120H200Zm0-80h560v-560H200v560Zm0-560v560-560Z"/></svg></svg></g></g></svg></g><g id="dark-icon">
    <svg xmlns="http://www.w3.org/2000/svg" version="1.1"
         width="1000" height="1000"><g clip-path="url(#SvgjsClipPath1318)"><rect width="1000" height="1000" fill="#000000"/><g transform="matrix(37.5,0,0,37.5,50,50)">
        <svg xmlns="http://www.w3.org/2000/svg" version="1.1"
             width="24px" height="24px"><svg xmlns="http://www.w3.org/2000/svg" height="24px" viewBox="0 -960 960 960" width="24px" fill="#e3e3e3"><path d="M320-240h60v-80h80v-60h-80v-80h-60v80h-80v60h80v80Zm200-30h200v-60H520v60Zm0-100h200v-60H520v60Zm44-152 56-56 56 56 42-42-56-58 56-56-42-42-56 56-56-56-42 42 56 56-56 58 42 42Zm-314-70h200v-60H250v60Zm-50 472q-33 0-56.5-23.5T120-200v-560q0-33 23.5-56.5T200-840h560q33 0 56.5 23.5T840-760v560q0 33-23.5 56.5T760-120H200Zm0-80h560v-560H200v560Zm0-560v560-560Z"/></svg></svg></g></g><defs><clipPath id="SvgjsClipPath1318"><rect width="1000" height="1000" x="0" y="0" rx="350" ry="350"/></clipPath></defs></svg></g></svg>